# xmcd
#
# Track frame offsets:
#	150
#	12312
#	25012
#	38300
#	48987
#	63325
#	74625
#	86937
#	100550
#	112150
#	121987
#	134950
#	149612
#	160412
#	171400
#	182887
#	194475
#	203362
#	214475
#	225087
#	233700
#	243475
#	254975
#	266000
#
# Disc length: 3675 seconds
#
# Revision: 1
# Processed by: cddbd v1.5PL3 Copyright (c) Steve Scherf et al.
# Submitted via: EasyCDDAExtractor 6.5.0.3
#
DISCID=6b0e5918
DTITLE=Jerry Vale - Be My Love/Have You Looked Into Your Heart
DYEAR=2000
DGENRE=Ethnic
TTITLE0=Love Is A Many-Splendored Thing
TTITLE1=Because Of You
TTITLE2=Unchained Melody
TTITLE3=Because
TTITLE4=Mona Lisa
TTITLE5=Because You're Mine
TTITLE6=Be My Love
TTITLE7=Why Don't You Believe Me
TTITLE8=All The Way
TTITLE9=Too Young
TTITLE10=Secret Love
TTITLE11=Vaya Con Dios
TTITLE12=Have You Looked Into Your Heart
TTITLE13=I'll Never Forgive You
TTITLE14=Have You Never Been Lonely
TTITLE15=I'm Yours
TTITLE16=Andiamo
TTITLE17=Always In My Heart
TTITLE18=Tears Keep On Falling
TTITLE19=There Are Such Things
TTITLE20=I Dream Of You
TTITLE21=The Love Goddess
TTITLE22=Old Cape Cod
TTITLE23=Ti Adoro
EXTD=
EXTT0=
EXTT1=
EXTT2=
EXTT3=
EXTT4=
EXTT5=
EXTT6=
EXTT7=
EXTT8=
EXTT9=
EXTT10=
EXTT11=
EXTT12=
EXTT13=
EXTT14=
EXTT15=
EXTT16=
EXTT17=
EXTT18=
EXTT19=
EXTT20=
EXTT21=
EXTT22=
EXTT23=
PLAYORDER=
